# xmcd
#
# Track frame offsets:
# 150
# 50228
# 96465
# 129253
# 196982
# 227762
# 254707
# 283479
#
# Disc length: 4609 seconds
#
#
# Revision: 0
# Processed by: cddbd v1.5.2PL0 Copyright (c) Steve Scherf et al.
# Submitted via: FreeRIP 2.96 
#
DISCID=8011ff08
DTITLE=Donna Leon - Lasset die Kinder zu mir kommen CD4v8
DYEAR=2008
DGENRE=Hörbuch
TTITLE0=23 Lasset die Kinder zu mir kommen
TTITLE1=24 Lasset die Kinder zu mir kommen
TTITLE2=25 Lasset die Kinder zu mir kommen
TTITLE3=26 Lasset die Kinder zu mir kommen
TTITLE4=27 Lasset die Kinder zu mir kommen
TTITLE5=28 Lasset die Kinder zu mir kommen
TTITLE6=29 Lasset die Kinder zu mir kommen
TTITLE7=30 Lasset die Kinder zu mir kommen
EXTD=ungekuerzte Lesung,\ngelesen von Jochen Striebeck
EXTT0=
EXTT1=
EXTT2=
EXTT3=
EXTT4=
EXTT5=
EXTT6=
EXTT7=
PLAYORDER=
